<?xml version="1.0" encoding="UTF-8"?>
<svg version="1.1" xmlns="http://www.w3.org/2000/svg" width="1024" height="1024">
<path d="M0 0 C10.508177 19.38956509 5.42950705 51.27552594 -0.52734375 71.4375 C-6.15315496 89.3305466 -14.58290754 104.89637546 -27 119 C-27.76957031 119.91394531 -28.53914062 120.82789063 -29.33203125 121.76953125 C-44.3786117 139.1496686 -65.99825431 151.93958999 -89 155 C-93.77470315 155.24946423 -98.53252962 155.23467893 -103.3125 155.1875 C-105.15618164 155.1865332 -105.15618164 155.1865332 -107.03710938 155.18554688 C-115.06465625 155.14742132 -123.00620943 154.72869023 -131 154 C-121.63930082 160.92415964 -112.26629408 167.82830365 -102.8125 174.625 C-96.5221193 179.15096404 -90.2935596 183.74983099 -84.10424805 188.4128418 C-72.64972802 197.03863264 -61.08620074 205.51364766 -49.4375 213.875 C-43.13308987 218.40246516 -36.96994455 223.03504611 -31 228 C-33.73701378 228.76184597 -36.23189044 229.1459622 -39.06930542 229.22550964 C-39.87074478 229.24975006 -40.67218414 229.27399048 -41.49790955 229.29896545 C-42.36855545 229.32043137 -43.23920135 229.34189728 -44.13623047 229.36401367 C-45.06042282 229.3899762 -45.98461517 229.41593872 -46.93681335 229.44268799 C-55.47169448 229.67318843 -64.00820814 229.84119202 -72.54484367 229.99140453 C-78.27130335 230.09255136 -83.9958057 230.21322216 -89.72070312 230.38208008 C-95.26881172 230.54532685 -100.81587547 230.65773028 -106.36581802 230.73552895 C-108.47028671 230.77343588 -110.57452274 230.82878836 -112.67803574 230.90266991 C-127.0610941 231.39077697 -135.29145305 229.76436932 -146 220 C-147.84502954 218.58439821 -149.70093583 217.18268369 -151.57421875 215.8046875 C-153.2800854 214.49666695 -154.98452121 213.18677819 -156.6875 211.875 C-162.9285024 207.09310667 -169.18327731 202.35239339 -175.56640625 197.76171875 C-178.23478669 195.83003403 -180.86855978 193.8567019 -183.5 191.875 C-187.96392808 188.51399303 -192.45355732 185.19070383 -196.95751953 181.88354492 C-206.31044709 175.01570808 -215.5972757 168.08123179 -224.6875 160.8671875 C-225.491875 160.23039063 -226.29625 159.59359375 -227.125 158.9375 C-227.80820312 158.38964844 -228.49140625 157.84179688 -229.1953125 157.27734375 C-231.08060325 155.81204287 -231.08060325 155.81204287 -234 155 C-234 153.68 -234 152.36 -234 151 C-232.3190918 149.53198242 -232.3190918 149.53198242 -230.01171875 148.16796875 C-225.27445753 145.21562831 -221.07291488 141.90777619 -216.8125 138.3125 C-215.32136898 137.06904449 -213.82916702 135.8268722 -212.3359375 134.5859375 C-211.23717285 133.67279785 -211.23717285 133.67279785 -210.11621094 132.74121094 C-207.09566892 130.25591956 -204.02405769 127.83998809 -200.9375 125.4375 C-195.14962286 120.92865157 -189.44359845 116.32603689 -183.76733398 111.67749023 C-182.5097892 110.64980694 -181.24586916 109.62987762 -179.97583008 108.61767578 C-178.57941323 107.47438429 -177.21997573 106.28521085 -175.8894043 105.06591797 C-170.03897503 99.94784273 -166.07927222 99.12245766 -158.4375 99.625 C-156.32696858 99.68862483 -154.21627194 99.74692134 -152.10546875 99.80078125 C-150.40656494 99.85613037 -150.40656494 99.85613037 -148.67333984 99.91259766 C-142.56116022 100.05802902 -136.45869881 99.99259914 -130.34695435 99.85345459 C-128.30317855 99.8135386 -126.26065938 99.80302135 -124.21655273 99.79345703 C-114.86859136 99.58568543 -106.42356879 98.09288575 -98.79394531 92.33520508 C-97 91 -97 91 -95 91 C-95 90.34 -95 89.68 -95 89 C-94.34 89 -93.68 89 -93 89 C-91.71267041 86.43201093 -90.43482758 83.8594423 -89.16015625 81.28515625 C-88.46099242 79.87757689 -87.76177206 78.4700256 -87.0625 77.0625 C-86.71509766 76.35931641 -86.36769531 75.65613281 -86.00976562 74.93164062 C-82.94221168 68.76764804 -80.5734366 64.06841316 -74.8125 60 C-69.76136658 56.33365799 -64.88536931 52.52393617 -60.0625 48.5625 C-55.16088419 44.54669032 -50.22826879 40.58989982 -45.1875 36.75 C-40.35696105 33.06829847 -35.63017596 29.27941632 -30.9453125 25.4140625 C-26.85307373 22.05994638 -22.71546623 18.76371464 -18.57592773 15.46826172 C-15.58429103 13.08279373 -12.606224 10.68542633 -9.66796875 8.234375 C-8.19263672 7.00460937 -8.19263672 7.00460937 -6.6875 5.75 C-5.82511719 5.02296875 -4.96273437 4.2959375 -4.07421875 3.546875 C-2 2 -2 2 0 2 C0 1.34 0 0.68 0 0 Z " fill="#0072F2" transform="translate(689,388)"/>
<path d="M0 0 C0.6636512 -0.00155999 1.32730239 -0.00311998 2.01106423 -0.00472724 C4.25122862 -0.00873923 6.49132611 -0.0055468 8.73149109 -0.00241089 C10.33103983 -0.00376488 11.93058827 -0.0055448 13.53013611 -0.00772095 C17.88765224 -0.01229663 22.24514481 -0.01050488 26.60266137 -0.00734186 C31.15587444 -0.00481764 35.70908544 -0.0071561 40.26229858 -0.00872803 C47.91332869 -0.0105501 55.56434916 -0.00814302 63.21537781 -0.00338745 C72.06477899 0.00204942 80.91415711 0.00029685 89.76355773 -0.00521386 C97.35253926 -0.00975088 104.94151385 -0.01039247 112.5304963 -0.00777519 C117.06675512 -0.00621491 121.60300311 -0.00601173 126.13926125 -0.00931168 C130.40651148 -0.01219871 134.67373199 -0.01019931 138.940979 -0.00441742 C140.50831745 -0.00309405 142.07565838 -0.00347678 143.64299583 -0.00568008 C145.78074854 -0.00840832 147.91840574 -0.00498984 150.05615234 0 C151.2531844 0.00037703 152.45021646 0.00075405 153.68352222 0.0011425 C156.22509611 0.10652354 158.30381169 0.37666449 160.71855164 1.12698364 C159.22188769 4.97919256 157.09705715 6.52535419 153.71855164 8.81448364 C148.87375763 12.21910421 144.53414219 15.89724148 140.18339539 19.90432739 C136.1856066 23.50930651 131.9520925 26.80538476 127.71855164 30.12698364 C121.30697733 35.16919854 115.06745655 40.37383506 108.89360046 45.70193481 C104.76178893 49.2586512 100.55110236 52.69208291 96.27323914 56.07229614 C92.66529026 58.97410212 89.14667598 61.97724928 85.6204071 64.97732544 C81.15970548 68.76753733 76.64566945 72.48800096 72.10136414 76.17776489 C70.09300029 77.82067237 68.12084365 79.49520647 66.15605164 81.18948364 C63.71855164 83.12698364 63.71855164 83.12698364 61.71855164 83.12698364 C61.71855164 82.46698364 61.71855164 81.80698364 61.71855164 81.12698364 C61.19519226 80.90268677 60.67183289 80.67838989 60.13261414 80.44729614 C56.1977758 78.29523246 52.81345759 75.37715073 49.32011414 72.58401489 C46.37516679 69.98326421 46.37516679 69.98326421 42.71855164 69.12698364 C33.01021373 91.47046169 23.36190186 113.83644826 13.96855164 136.31448364 C13.41811188 137.63133652 13.41811188 137.63133652 12.85655212 138.97479248 C11.79390468 141.51858738 10.7324953 144.06289437 9.67167664 146.60745239 C9.33828278 147.4063942 9.00488892 148.205336 8.66139221 149.02848816 C6.99363529 153.03313205 5.34351939 157.04392281 3.72050476 161.06692505 C3.40152222 161.85392288 3.08253967 162.64092072 2.75389099 163.45176697 C2.15252762 164.93802162 1.55531784 166.42596613 0.96299744 167.91584778 C-0.19846857 170.78184872 -1.07112913 172.91666441 -3.28144836 175.12698364 C-5.53237866 175.56999861 -7.80564504 175.9011209 -10.0827179 176.1802063 C-10.78217026 176.26828049 -11.48162262 176.35635468 -12.20227051 176.44709778 C-14.52197162 176.73690372 -16.84298165 177.01418724 -19.16426086 177.29104614 C-20.77899099 177.48935541 -22.39364468 177.68828794 -24.00822449 177.88781738 C-27.39879831 178.30495546 -30.79001695 178.71621601 -34.18183899 179.12307739 C-38.51371006 179.64292623 -42.84403462 180.17451693 -47.17396736 180.71024513 C-50.51251829 181.12243326 -53.85166315 181.529628 -57.19102097 181.93522263 C-58.78664292 182.12936777 -60.38211778 182.32472604 -61.97743607 182.52135086 C-64.21900778 182.79659188 -66.4612604 183.0654225 -68.70381165 183.33255005 C-69.9768515 183.48640167 -71.24989136 183.6402533 -72.56150818 183.79876709 C-76.50572803 184.14677221 -80.32470878 184.18269501 -84.28144836 184.12698364 C-80.93651507 175.18877407 -77.31552662 166.39973054 -73.5219574 157.64480591 C-65.68431287 139.54726742 -58.07063477 121.35741887 -50.47285461 103.15823364 C-42.16565687 83.26163152 -33.7301686 63.42084462 -25.27217102 43.58792114 C-23.78533807 40.10108769 -22.29896776 36.61405734 -20.81269836 33.12698364 C-20.33719543 32.01210571 -19.8616925 30.89722778 -19.3717804 29.74856567 C-17.17210255 24.58646157 -14.98114236 19.42111921 -12.81660461 14.24417114 C-12.44338074 13.35213989 -12.07015686 12.46010864 -11.68562317 11.54104614 C-10.99755856 9.89355635 -10.31163781 8.24516893 -9.62825012 6.59573364 C-7.00061092 0.30161288 -6.81324615 0.00214798 0 0 Z " fill="#00BDFE" transform="translate(366.2814483642578,439.8730163574219)"/>
<path d="M0 0 C113.52 0 227.04 0 344 0 C342.20568495 3.58863009 341.49587207 4.70619291 338.578125 7.06640625 C337.88920166 7.6289209 337.20027832 8.19143555 336.49047852 8.77099609 C335.75112061 9.36219238 335.0117627 9.95338867 334.25 10.5625 C333.10905884 11.48796631 333.10905884 11.48796631 331.94506836 12.43212891 C326.05381684 17.19652411 320.1083498 21.89267844 314.1328125 26.55078125 C311.38321436 28.70040473 308.65552615 30.8732217 305.9375 33.0625 C301.70215865 36.4618278 297.40560552 39.77750221 293.09521484 43.08056641 C289.06344747 46.17334865 285.05644368 49.29605171 281.0625 52.4375 C280.48870605 52.88762451 279.91491211 53.33774902 279.32373047 53.80151367 C276.24837746 56.21724938 273.18832108 58.65005813 270.14453125 61.10546875 C269.51345459 61.61086182 268.88237793 62.11625488 268.23217773 62.63696289 C267.02284575 63.60592285 265.81768836 64.58012365 264.61743164 65.56030273 C258.9856836 70.05657085 258.9856836 70.05657085 256 70 C253.72265602 68.25478788 251.87926232 66.25135603 249.90234375 64.17578125 C239.87653763 56.65980008 228.48924206 57.49938835 216.59472656 57.6887207 C214.64390981 57.7046052 212.69307659 57.71856554 210.74223328 57.73075867 C206.56028252 57.76022153 202.37868647 57.80167238 198.19693756 57.85216713 C191.582454 57.93043409 184.96804478 57.97229426 178.35321045 58.00761414 C159.55031069 58.11326314 140.74797289 58.26304029 121.94580078 58.45922852 C111.54687592 58.56741768 101.14821651 58.64329129 90.74880385 58.68411511 C84.17409916 58.71181807 77.60142397 58.77966799 71.02740431 58.87727225 C66.93966491 58.92849639 62.8524463 58.94198497 58.76441383 58.94479561 C56.87083649 58.95365314 54.97725799 58.97798454 53.08410454 59.01901627 C38.77376328 59.31685781 38.77376328 59.31685781 34.35955906 56.03971291 C32.55367257 53.75962501 31.25744125 51.61344245 30 49 C29.29609131 47.98518555 28.59218262 46.97037109 27.86694336 45.92480469 C27.28050049 45.01633789 26.69405762 44.10787109 26.08984375 43.171875 C25.41622803 42.13401855 24.7426123 41.09616211 24.04858398 40.02685547 C23.35192627 38.94549316 22.65526855 37.86413086 21.9375 36.75 C20.44980979 34.45449867 18.95921158 32.16089004 17.46875 29.8671875 C17.09676987 29.29392731 16.72478973 28.72066711 16.34153748 28.1300354 C12.58595172 22.34785323 8.76880976 16.60724994 4.9375 10.875 C4.33607178 9.97491211 3.73464355 9.07482422 3.11499023 8.14746094 C1.7443194 6.09763984 0.37276444 4.04841935 -1 2 C-0.67 1.34 -0.34 0.68 0 0 Z " fill="#00BDFE" transform="translate(312,334)"/>
<path d="M0 0 C6.08370113 5.65223297 8.80195172 13.45925937 9.4375 21.5625 C8.80524722 31.20435493 5.38544957 38.59311289 -1.75 45.125 C-7.66929657 50.05593696 -13.17119077 51.23436241 -20.8125 51.375 C-22.17218152 51.04263341 -23.52712506 50.68990498 -24.875 50.3125 C-28.80287565 49.95408685 -28.80287565 49.95408685 -31.02734375 52.28515625 C-32.57812595 54.04270941 -34.09177809 55.83359294 -35.5703125 57.65234375 C-39.21491133 62.07792804 -43.29688289 66.53646096 -48.8125 68.375 C-48.8125 69.035 -48.8125 69.695 -48.8125 70.375 C-50.62109375 72.046875 -50.62109375 72.046875 -53.25 74.125 C-54.25546875 74.929375 -55.2609375 75.73375 -56.296875 76.5625 C-56.85826172 77.00980469 -57.41964844 77.45710938 -57.99804688 77.91796875 C-61.36090955 80.61839453 -64.67612496 83.37685477 -68 86.125 C-73.66520205 90.79874433 -79.35358925 95.44228454 -85.0625 100.0625 C-89.85947333 103.94667949 -94.61446468 107.87172917 -99.3125 111.875 C-133.01470115 140.56208652 -133.01470115 140.56208652 -149.52539062 140.56030273 C-151.80357477 140.56249143 -154.08127643 140.58065804 -156.359375 140.59960938 C-157.80208167 140.60254293 -159.24479065 140.60452798 -160.6875 140.60546875 C-162.00492188 140.60957764 -163.32234375 140.61368652 -164.6796875 140.61791992 C-167.8125 140.375 -167.8125 140.375 -169.8125 138.375 C-168.843125 137.88 -167.87375 137.385 -166.875 136.875 C-162.92351713 134.61588529 -159.7927404 131.7684929 -156.44921875 128.703125 C-153.4143195 126.02342137 -150.26193878 123.54098165 -147.0625 121.0625 C-141.73779676 116.92914243 -136.55107848 112.66841221 -131.42675781 108.28979492 C-128.26568541 105.592649 -125.06998829 102.95472057 -121.8125 100.375 C-117.91108174 97.28426605 -114.10155662 94.10124925 -110.3125 90.875 C-105.68875791 86.93964289 -101.00823312 83.09392118 -96.25390625 79.31640625 C-81.93092144 67.92676873 -68.09920157 55.95850567 -54.8125 43.375 C-53.8534375 42.52421875 -52.894375 41.6734375 -51.90625 40.796875 C-49.60038721 38.63803287 -49.60038721 38.63803287 -49.7265625 36.234375 C-49.96117187 35.53828125 -50.19578125 34.8421875 -50.4375 34.125 C-50.66179687 33.34640625 -50.88609375 32.5678125 -51.1171875 31.765625 C-51.34664062 30.97671875 -51.57609375 30.1878125 -51.8125 29.375 C-53.3757892 21.42142339 -52.78149183 14.45479694 -48.75 7.3125 C-43.35923559 -0.52291339 -37.29066058 -5.44589248 -27.859375 -7.2890625 C-17.80524099 -8.39759522 -8.12020148 -6.19099594 0 0 Z " fill="#009DFD" transform="translate(732.8125,303.625)"/>
<path d="M0 0 C1.02480469 0.00322266 2.04960938 0.00644531 3.10546875 0.00976562 C4.16894531 0.01814453 5.23242188 0.02652344 6.328125 0.03515625 C7.40707031 0.03966797 8.48601562 0.04417969 9.59765625 0.04882812 C12.25786883 0.06059898 14.91796865 0.07704226 17.578125 0.09765625 C14.56438138 4.21200723 11.11688493 7.23379643 7.078125 10.28515625 C5.82048074 11.25373789 4.56399016 12.22381915 3.30859375 13.1953125 C2.36765869 13.92258545 2.36765869 13.92258545 1.40771484 14.66455078 C-2.31797778 17.58286086 -5.92177589 20.64569476 -9.546875 23.6875 C-15.5483418 28.71862095 -21.58194685 33.70674595 -27.796875 38.47265625 C-31.57851415 41.38837445 -35.22349978 44.44179175 -38.859375 47.53515625 C-39.41359131 48.00252197 -39.96780762 48.4698877 -40.53881836 48.95141602 C-43.14797866 51.15257208 -45.72566209 53.37056388 -48.265625 55.65234375 C-49.54953125 56.76996094 -49.54953125 56.76996094 -50.859375 57.91015625 C-51.60058594 58.57660156 -52.34179688 59.24304688 -53.10546875 59.9296875 C-55.421875 61.09765625 -55.421875 61.09765625 -58.5078125 60.45703125 C-60.97200199 59.30751658 -62.65448725 58.36957473 -64.609375 56.53515625 C-67.23169481 53.94863198 -67.23169481 53.94863198 -70.421875 53.09765625 C-70.421875 51.77765625 -70.421875 50.45765625 -70.421875 49.09765625 C-68.7409668 47.62963867 -68.7409668 47.62963867 -66.43359375 46.265625 C-61.69633253 43.31328456 -57.49478988 40.00543244 -53.234375 36.41015625 C-51.74324398 35.16670074 -50.25104202 33.92452845 -48.7578125 32.68359375 C-48.02530273 32.07483398 -47.29279297 31.46607422 -46.53808594 30.83886719 C-43.51754292 28.35357499 -40.44590886 25.9376764 -37.359375 23.53515625 C-30.80512582 18.42829582 -24.35592208 13.19769335 -17.91796875 7.9453125 C-17.31581543 7.45691895 -16.71366211 6.96852539 -16.09326172 6.46533203 C-14.61556254 5.25614845 -13.15953748 4.02058266 -11.70703125 2.78125 C-7.94744338 0.0113656 -4.58499289 -0.02547218 0 0 Z " fill="#00BBFE" transform="translate(525.421875,489.90234375)"/>
<path d="M0 0 C0.76316528 0.00359528 1.52633057 0.00719055 2.31262207 0.01089478 C3.51253029 0.01067574 3.51253029 0.01067574 4.73667908 0.01045227 C7.39344958 0.01115161 10.05015086 0.01894498 12.70690918 0.02676392 C14.54393984 0.02862802 16.38097099 0.03005196 18.21800232 0.03105164 C23.06284955 0.03487742 27.90766701 0.04470821 32.75250244 0.05575562 C37.69237871 0.06596845 42.63225978 0.07054898 47.57214355 0.07559204 C57.27202646 0.08633042 66.97188722 0.10340756 76.67175293 0.12442017 C76.67175293 0.78442017 76.67175293 1.44442017 76.67175293 2.12442017 C86.57175293 2.12442017 96.47175293 2.12442017 106.67175293 2.12442017 C106.67175293 2.45442017 106.67175293 2.78442017 106.67175293 3.12442017 C105.39690536 3.12219955 104.1220578 3.11997894 102.80857849 3.11769104 C90.78766926 3.09740932 78.7667635 3.08242376 66.74584103 3.07260799 C60.56594568 3.06739197 54.38606415 3.06031752 48.20617676 3.04898071 C42.24099657 3.0381064 36.27582967 3.03213368 30.31064034 3.02954292 C28.03610589 3.02769688 25.76157216 3.02409203 23.48704338 3.01869011 C20.29851592 3.01141943 17.11004322 3.01043178 13.92150879 3.01089478 C12.51457008 3.00550186 12.51457008 3.00550186 11.07920837 3 C3.81816269 3.00721029 3.81816269 3.00721029 -3.32824707 4.12442017 C-5.27282791 7.35571747 -5.27282791 7.35571747 -6.32824707 11.12442017 C-7.43097163 13.95015186 -8.57302617 16.60456378 -9.95324707 19.31192017 C-11.47465045 21.90211163 -11.47465045 21.90211163 -11.32824707 24.12442017 C-11.98824707 24.12442017 -12.64824707 24.12442017 -13.32824707 24.12442017 C-13.49840332 24.6696936 -13.66855957 25.21496704 -13.84387207 25.77676392 C-15.17228148 29.91037831 -16.61830419 33.87415953 -18.45324707 37.81192017 C-20.02857203 41.23915387 -20.94013332 44.34031108 -21.32824707 48.12442017 C-21.98824707 48.12442017 -22.64824707 48.12442017 -23.32824707 48.12442017 C-23.45199707 48.74317017 -23.57574707 49.36192017 -23.70324707 49.99942017 C-24.32824707 52.12442017 -24.32824707 52.12442017 -26.32824707 54.12442017 C-25.23809069 46.52070553 -23.33556578 39.91004637 -20.23059082 32.89785767 C-19.83626358 31.98355988 -19.44193634 31.06926208 -19.03565979 30.1272583 C-17.78977031 27.24650609 -16.52779185 24.37312536 -15.26574707 21.49942017 C-14.41513028 19.53501233 -13.56551185 17.57017188 -12.71691895 15.60488892 C-9.62400882 8.47288574 -9.62400882 8.47288574 -8.06237793 4.91885376 C-7.75086288 4.20812714 -7.43934784 3.49740051 -7.11839294 2.76513672 C-5.4774355 -0.64226706 -3.56302592 0.00708479 0 0 Z " fill="#04CCFC" transform="translate(365.3282470703125,439.8755798339844)"/>
<path d="M0 0 C5.10868402 1.59335174 8.80345104 4.73364857 12.9375 8 C19.08030909 12.7895351 25.28443851 17.43359628 31.70874023 21.83984375 C34.45677906 23.75495657 36.11216792 25.16825188 38 28 C24.9525255 28.24670246 11.90490512 28.46593058 -1.14360905 28.65021229 C-7.20275259 28.73664526 -13.26144055 28.83249236 -19.32006836 28.94995117 C-25.16835333 29.06298408 -31.01653613 29.15116073 -36.86547661 29.22220421 C-39.09549621 29.25364138 -41.32540874 29.29399344 -43.55510139 29.34345436 C-46.68152942 29.41127588 -49.80683888 29.44721702 -52.93383789 29.47583008 C-53.85309555 29.5031572 -54.77235321 29.53048431 -55.71946716 29.55863953 C-62.08664292 29.57005465 -65.1658721 28.15956735 -70 24 C-68.68 23.67 -67.36 23.34 -66 23 C-65.67 23.99 -65.34 24.98 -65 26 C-61.31251691 26.02925502 -57.62506408 26.04688418 -53.9375 26.0625 C-52.37999023 26.07506836 -52.37999023 26.07506836 -50.79101562 26.08789062 C-49.77587891 26.09111328 -48.76074219 26.09433594 -47.71484375 26.09765625 C-46.32446899 26.10551147 -46.32446899 26.10551147 -44.90600586 26.11352539 C-41.91522933 26.04982418 -41.91522933 26.04982418 -38.65014648 25.49780273 C-34.70116693 24.95924549 -30.85661017 24.89120984 -26.8828125 24.9375 C-25.30094452 24.94605827 -23.719076 24.95451799 -22.13720703 24.96289062 C-21.31786682 24.96909424 -20.49852661 24.97529785 -19.65435791 24.98168945 C-3.74000062 25.09689679 12.1046137 24.86243366 28 24 C27.30442117 20.76479843 27.30442117 20.76479843 24.3046875 19.56640625 C23.21414063 19.04949219 22.12359375 18.53257812 21 18 C19.01218397 16.68949466 17.05268941 15.33494422 15.125 13.9375 C14.15820312 13.24527344 13.19140625 12.55304687 12.1953125 11.83984375 C11.10863281 10.92912109 11.10863281 10.92912109 10 10 C10 9.34 10 8.68 10 8 C8.02 7.67 6.04 7.34 4 7 C4 5.68 4 4.36 4 3 C2.68 2.34 1.36 1.68 0 1 C0 0.67 0 0.34 0 0 Z " fill="#0A53D6" transform="translate(620,589)"/>
<path d="M0 0 C65.01 0 130.02 0 197 0 C197 0.33 197 0.66 197 1 C195.51849048 1.01131313 195.51849048 1.01131313 194.00705147 1.0228548 C170.00538998 1.20681693 146.0039179 1.40783352 122.00255013 1.62686634 C110.39579445 1.7323905 98.7890404 1.83231626 87.18212891 1.91918945 C77.06880453 1.99489779 66.95563161 2.08098087 56.84250438 2.17966861 C51.4847206 2.23158567 46.12700584 2.2782079 40.7690773 2.31241798 C35.73096901 2.34474967 30.69318058 2.3909014 25.65529251 2.44787407 C23.80173648 2.46635911 21.94812127 2.479699 20.09449005 2.48763275 C17.57248852 2.49918011 15.05134871 2.5288708 12.52957153 2.56330872 C11.78833514 2.56235209 11.04709875 2.56139546 10.28340065 2.56040984 C8.0371577 2.56847765 8.0371577 2.56847765 5 3 C4.01 4.485 4.01 4.485 3 6 C1.68 4.68 0.36 3.36 -1 2 C-0.67 1.34 -0.34 0.68 0 0 Z " fill="#0BC3FB" transform="translate(312,334)"/>
<path d="M0 0 C2.39073445 3.82517513 2.55966552 7.59665524 3 12 C2.01 11.67 1.02 11.34 0 11 C-1.1875 8.4375 -1.1875 8.4375 -2 6 C-4.48391083 7.95237619 -6.9612799 9.91288181 -9.4375 11.875 C-10.14455078 12.43058594 -10.85160156 12.98617188 -11.58007812 13.55859375 C-12.59038086 14.36103516 -12.59038086 14.36103516 -13.62109375 15.1796875 C-14.2442749 15.67194824 -14.86745605 16.16420898 -15.50952148 16.67138672 C-17.12937189 17.95033606 -17.12937189 17.95033606 -18 20 C-19.66150065 21.00856004 -21.32919492 22.00692994 -23 23 C-24.81484228 24.42938905 -26.60570541 25.88960368 -28.375 27.375 C-33.06334444 31.25891001 -37.83051957 34.81299121 -42.83984375 38.26953125 C-46.21847057 40.63385573 -49.12031438 43.0303242 -52 46 C-55.06430545 48.79110231 -58.05631121 51.43828048 -61.625 53.5625 C-64.19984268 54.98549236 -64.19984268 54.98549236 -66.5625 57.625 C-69.04925743 60.04799442 -69.83887794 60.23697054 -73 61 C-73.70394612 62.31403276 -74.36345658 63.6520257 -75 65 C-75.804375 65.763125 -76.60875 66.52625 -77.4375 67.3125 C-80.34736459 70.36430921 -81.46751415 73.09912694 -83 77 C-84.51849305 79.7332875 -85.79124283 81.79124283 -88 84 C-86.63672838 74.1014626 -83.19954814 66.13104648 -75.125 60 C-73.38551482 58.76790678 -71.63558101 57.55262235 -69.87988281 56.34375 C-66.4545437 53.89529981 -63.24373056 51.18151505 -60 48.5 C-55.12042609 44.50407341 -50.20384139 40.57290721 -45.1875 36.75 C-40.35704374 33.06818727 -35.63017992 29.27941958 -30.9453125 25.4140625 C-26.85307373 22.05994638 -22.71546623 18.76371464 -18.57592773 15.46826172 C-15.58429103 13.08279373 -12.606224 10.68542633 -9.66796875 8.234375 C-8.19263672 7.00460937 -8.19263672 7.00460937 -6.6875 5.75 C-5.82511719 5.02296875 -4.96273437 4.2959375 -4.07421875 3.546875 C-2 2 -2 2 0 2 C0 1.34 0 0.68 0 0 Z " fill="#0486F3" transform="translate(689,388)"/>
<path d="M0 0 C2.21463013 -0.36076355 2.21463013 -0.36076355 5.00048828 -0.34057617 C6.56188034 -0.34023628 6.56188034 -0.34023628 8.15481567 -0.33988953 C9.28192963 -0.32440567 10.40904358 -0.30892181 11.5703125 -0.29296875 C13.29735916 -0.28660149 13.29735916 -0.28660149 15.05929565 -0.28010559 C18.74809855 -0.26327052 22.43636136 -0.22560874 26.125 -0.1875 C28.62108588 -0.17245944 31.11718029 -0.15876995 33.61328125 -0.14648438 C39.74237275 -0.1133512 45.8711478 -0.06310389 52 0 C51.67 0.99 51.34 1.98 51 3 C33.51 3 16.02 3 -2 3 C-1.34 2.01 -0.68 1.02 0 0 Z " fill="#0392F5" transform="translate(520,488)"/>
<path d="M0 0 C-3.29080576 2.78016348 -6.57824436 4.13133032 -10.625 5.5625 C-11.77226563 5.97628906 -12.91953125 6.39007812 -14.1015625 6.81640625 C-23.44252089 9.79260878 -32.35090367 10.32140427 -42.125 10.25 C-43.40076904 10.24613281 -44.67653809 10.24226562 -45.9909668 10.23828125 C-55.13022178 10.15463206 -63.99578948 9.58814422 -73 8 C-73 7.67 -73 7.34 -73 7 C-66.55252344 6.89194173 -60.18177537 7.01471195 -53.75 7.5 C-40.79174488 8.38501844 -29.68958409 8.45319035 -17.23046875 4.875 C-14 4 -14 4 -11 4 C-11 3.34 -11 2.68 -11 2 C-7.17010894 0.19769832 -4.21878192 -0.19622241 0 0 Z " fill="#0862DC" transform="translate(628,533)"/>
<path d="M0 0 C-1.671875 3.84375 -1.671875 3.84375 -4.625 5.25 C-5.800625 5.62125 -5.800625 5.62125 -7 6 C-5.68 4.68 -4.36 3.36 -3 2 C-30.06 1.67 -57.12 1.34 -85 1 C-85 0.67 -85 0.34 -85 0 C-75.24636121 -0.15432456 -65.49264982 -0.3024997 -55.738801 -0.4429636 C-51.20903494 -0.50838645 -46.67931986 -0.57587611 -42.1496582 -0.64819336 C-37.77307763 -0.71798884 -33.39644663 -0.78221907 -29.01972771 -0.84269524 C-27.35527553 -0.86665222 -25.69085029 -0.89256782 -24.02646065 -0.92053413 C-7.97158906 -1.18793876 -7.97158906 -1.18793876 0 0 Z " fill="#07A2F5" transform="translate(527,441)"/>
<path d="M0 0 C0.99 0.33 1.98 0.66 3 1 C1.54950728 6.46132487 0.03164125 11.25542763 -2.96484375 16.09765625 C-4.71288746 19.31009884 -5.78673531 22.76782289 -6.99609375 26.2109375 C-7.94466412 28.84626529 -8.95981408 31.42566861 -10.0625 34 C-10.51302734 35.051875 -10.51302734 35.051875 -10.97265625 36.125 C-12.07440286 38.1357923 -13.35764032 39.4182409 -15 41 C-13.82274374 31.67466937 -10.06964524 23.4134742 -6.375 14.875 C-5.75694002 13.42745554 -5.13974554 11.97954123 -4.5234375 10.53125 C-3.02556511 7.01649139 -1.51608373 3.50693938 0 0 Z " fill="#07CCFB" transform="translate(319,535)"/>
<path d="M0 0 C0.84304688 0.16242188 1.68609375 0.32484375 2.5546875 0.4921875 C6.12924229 1.01904932 9.51355129 1.13280011 13.125 1.125 C14.92324219 1.12886719 14.92324219 1.12886719 16.7578125 1.1328125 C19.80274254 1.1300092 19.80274254 1.1300092 21.87744141 0.48413086 C24.41616343 -0.09492203 26.60375376 -0.01491986 29.203125 0.12109375 C30.67265625 0.19360352 30.67265625 0.19360352 32.171875 0.26757812 C33.69554687 0.35168945 33.69554687 0.35168945 35.25 0.4375 C36.796875 0.51581055 36.796875 0.51581055 38.375 0.59570312 C40.91699039 0.72515634 43.45856593 0.86011328 46 1 C46 1.33 46 1.66 46 2 C39.73 2.33 33.46 2.66 27 3 C27 3.33 27 3.66 27 4 C18.42 4 9.84 4 1 4 C0.67 2.68 0.34 1.36 0 0 Z " fill="#05D3FE" transform="translate(348,388)"/>
<path d="M0 0 C4.46572364 -0.04958948 8.93129961 -0.085809 13.3972168 -0.10986328 C14.91514886 -0.11989545 16.43306173 -0.13352438 17.95092773 -0.15087891 C20.1379064 -0.17525035 22.32462864 -0.18651095 24.51171875 -0.1953125 C25.82615967 -0.20578613 27.14060059 -0.21625977 28.49487305 -0.22705078 C31.81382589 -0.01205976 34.03314007 0.55774177 37 2 C37 2.66 37 3.32 37 4 C37.94875 4.268125 38.8975 4.53625 39.875 4.8125 C43 6 43 6 45 9 C46.96361864 9.57748803 46.96361864 9.57748803 49.125 9.6875 C50.40375 9.790625 51.6825 9.89375 53 10 C52.01 11.32 51.02 12.64 50 14 C46.48070314 13.41989612 44.92152845 12.19298874 42.4375 9.6875 C33.89706591 2.01047406 23.86511721 1.38108225 12.8125 1.25 C10.9552832 1.20552734 10.9552832 1.20552734 9.06054688 1.16015625 C6.04030206 1.09018919 3.02079636 1.03713176 0 1 C0 0.67 0 0.34 0 0 Z " fill="#0699F8" transform="translate(521,390)"/>
<path d="M0 0 C13.53 0 27.06 0 41 0 C41 0.33 41 0.66 41 1 C35.74541441 1.69005322 30.58486309 2.08427503 25.28515625 2.2109375 C23.51495117 2.25347656 23.51495117 2.25347656 21.70898438 2.296875 C19.25081656 2.34954062 16.79245187 2.39362826 14.33398438 2.4296875 C13.16287109 2.460625 11.99175781 2.4915625 10.78515625 2.5234375 C9.19006226 2.5531665 9.19006226 2.5531665 7.56274414 2.58349609 C6.71703857 2.72094238 5.87133301 2.85838867 5 3 C4.01 4.485 4.01 4.485 3 6 C1.68 4.68 0.36 3.36 -1 2 C-0.67 1.34 -0.34 0.68 0 0 Z " fill="#0ECEFA" transform="translate(312,334)"/>
<path d="M0 0 C0.66 0.33 1.32 0.66 2 1 C-2.64969059 4.62230816 -5.46022977 5.49931995 -11.515625 5.4609375 C-12.21266541 5.46002106 -12.90970581 5.45910461 -13.62786865 5.4581604 C-15.09019853 5.45215363 -16.5525178 5.43649605 -18.01464844 5.41162109 C-20.25761901 5.37487518 -22.49894589 5.37060375 -24.7421875 5.37109375 C-35.70450526 5.29549474 -35.70450526 5.29549474 -38 3 C-36.02 2.34 -34.04 1.68 -32 1 C-32 1.33 -32 1.66 -32 2 C-27.92492428 2.04946866 -23.84996503 2.08575189 -19.7746582 2.10986328 C-18.38855952 2.1199157 -17.00248201 2.1335597 -15.61645508 2.15087891 C-13.6233025 2.17515952 -11.62999467 2.18542031 -9.63671875 2.1953125 C-8.43748779 2.20578613 -7.23825684 2.21625977 -6.00268555 2.22705078 C-2.81837173 2.23308072 -2.81837173 2.23308072 0 0 Z " fill="#0A8AF1" transform="translate(601,439)"/>
<path d="M0 0 C5.28 0 10.56 0 16 0 C14.193388 3.61322401 13.33581029 4.83748791 10.375 7.25 C9.74335937 7.77078125 9.11171875 8.2915625 8.4609375 8.828125 C7.97882812 9.21484375 7.49671875 9.6015625 7 10 C6.34 9.67 5.68 9.34 5 9 C6.375 6.5 6.375 6.5 8 4 C8.66 4 9.32 4 10 4 C10 3.34 10 2.68 10 2 C5.545 2.495 5.545 2.495 1 3 C0.67 2.01 0.34 1.02 0 0 Z " fill="#0599F7" transform="translate(640,334)"/>
<path d="M0 0 C0.66 0.33 1.32 0.66 2 1 C-17.61702128 19 -17.61702128 19 -21 19 C-21 18.34 -21 17.68 -21 17 C-21.556875 16.773125 -22.11375 16.54625 -22.6875 16.3125 C-25.63246684 14.64103234 -27.68156544 12.44723648 -30 10 C-27.73168707 11.05314529 -25.95955895 12.03522285 -24.0625 13.6875 C-22.06471267 15.21810567 -22.06471267 15.21810567 -19.5625 15 C-16.19823548 13.68711629 -14.4763378 11.60015469 -12 9 C-10.33720673 7.9935725 -8.67016516 6.99414593 -7 6 C-4.6095664 4.06369888 -2.2972007 2.04563406 0 0 Z " fill="#099DF4" transform="translate(449,504)"/>
<path d="M0 0 C2.475 0.495 2.475 0.495 5 1 C5 1.66 5 2.32 5 3 C5.58523438 2.98839844 6.17046875 2.97679687 6.7734375 2.96484375 C15.87350836 2.86919736 24.92180265 3.44072712 34 4 C34 4.33 34 4.66 34 5 C30.62511542 5.16905897 27.25007637 5.33481769 23.875 5.5 C22.92367187 5.54769531 21.97234375 5.59539063 20.9921875 5.64453125 C18.32848942 5.77401657 15.66446313 5.88763032 13 6 C11.865625 6.06058594 10.73125 6.12117187 9.5625 6.18359375 C6.65118025 5.97500834 5.39983228 5.34697955 3.125 3.5625 C2.52945313 3.11003906 1.93390625 2.65757812 1.3203125 2.19140625 C0.88460937 1.79824219 0.44890625 1.40507813 0 1 C0 0.67 0 0.34 0 0 Z " fill="#0B59CE" transform="translate(550,612)"/>
<path d="M0 0 C3.875 1.75 3.875 1.75 5 4 C-18.265 3.505 -18.265 3.505 -42 3 C-42 2.67 -42 2.34 -42 2 C-28.14 1.67 -14.28 1.34 0 1 C0 0.67 0 0.34 0 0 Z " fill="#0843C3" transform="translate(653,613)"/>
<path d="M0 0 C3.7348165 1.24493883 4.04556025 2.33018516 5.9375 5.6875 C8.16840685 9.56516104 10.47461391 13.30905109 13 17 C12.67 17.66 12.34 18.32 12 19 C6.89192104 14.51108213 3.2101808 8.976302 0 3 C0 2.01 0 1.02 0 0 Z " fill="#09D7FC" transform="translate(323,351)"/>
<path d="M0 0 C1.12642186 3.37926557 0.96344705 3.72928278 -0.43359375 6.79296875 C-0.75263672 7.50517578 -1.07167969 8.21738281 -1.40039062 8.95117188 C-1.74263672 9.68916016 -2.08488281 10.42714844 -2.4375 11.1875 C-2.77587891 11.93708984 -3.11425781 12.68667969 -3.46289062 13.45898438 C-4.2999411 15.30992698 -5.14885404 17.15549666 -6 19 C-6.33 19 -6.66 19 -7 19 C-6.57815943 12.35601103 -5.42584281 6.7916135 -2 1 C-1.34 0.67 -0.68 0.34 0 0 Z " fill="#07D0FC" transform="translate(335,501)"/>
<path d="M0 0 C-4.95 4.29 -9.9 8.58 -15 13 C-15.66 12.67 -16.32 12.34 -17 12 C-15.71111971 9.1248055 -14.46733017 6.9928436 -12 5 C-11.29875 4.835 -10.5975 4.67 -9.875 4.5 C-9.25625 4.335 -8.6375 4.17 -8 4 C-7.67 3.01 -7.34 2.02 -7 1 C-2.55696203 -1.27848101 -2.55696203 -1.27848101 0 0 Z " fill="#069CF5" transform="translate(519,449)"/>
<path d="M0 0 C1.29776668 3.89330004 0.36104076 4.98986493 -1.375 8.625 C-1.83648437 9.60726562 -2.29796875 10.58953125 -2.7734375 11.6015625 C-4 14 -4 14 -5 15 C-6.51928038 15.07179964 -8.04167482 15.08392007 -9.5625 15.0625 C-10.38878906 15.05347656 -11.21507812 15.04445313 -12.06640625 15.03515625 C-12.70449219 15.02355469 -13.34257812 15.01195312 -14 15 C-14 14.67 -14 14.34 -14 14 C-11.36 13.67 -8.72 13.34 -6 13 C-5.01 10.03 -4.02 7.06 -3 4 C-2.34 4 -1.68 4 -1 4 C-0.67 2.68 -0.34 1.36 0 0 Z " fill="#09A1F2" transform="translate(368,600)"/>
<path d="M0 0 C0 3 0 3 -1.12988281 4.45800781 C-2.82496767 6.06891713 -4.52601108 7.66998446 -6.25 9.25 C-6.83652344 9.8171875 -7.42304688 10.384375 -8.02734375 10.96875 C-8.60097656 11.49984375 -9.17460937 12.0309375 -9.765625 12.578125 C-10.28930664 13.06700195 -10.81298828 13.55587891 -11.35253906 14.05957031 C-13 15 -13 15 -15.20214844 14.65136719 C-15.79543945 14.43641602 -16.38873047 14.22146484 -17 14 C-16.27554687 13.40832031 -15.55109375 12.81664062 -14.8046875 12.20703125 C-9.85195909 8.15900123 -4.90312066 4.10802001 0 0 Z " fill="#007FFB" transform="translate(489,534)"/>
<path d="M0 0 C0.33 0.66 0.66 1.32 1 2 C-0.28062485 3.7074998 -1.61767557 5.37373596 -3 7 C-3.66 7 -4.32 7 -5 7 C-5.33 7.99 -5.66 8.98 -6 10 C-11.11627907 14.09302326 -11.11627907 14.09302326 -14.375 13.75 C-14.91125 13.5025 -15.4475 13.255 -16 13 C-15.01 12.34 -14.02 11.68 -13 11 C-10.93284804 9.46630661 -8.8908115 7.91329149 -6.875 6.3125 C-5 5 -5 5 -3 5 C-3 4.34 -3 3.68 -3 3 C-2.34 3 -1.68 3 -1 3 C-0.67 2.01 -0.34 1.02 0 0 Z " fill="#0381F4" transform="translate(597,474)"/>
<path d="M0 0 C4.10110762 1.40398279 6.98089159 3.37087038 10.3125 6.125 C11.19550781 6.84945312 12.07851563 7.57390625 12.98828125 8.3203125 C13.65214844 8.87460937 14.31601562 9.42890625 15 10 C13.171875 10.61328125 13.171875 10.61328125 11 11 C8.25 9.1875 8.25 9.1875 6 7 C6 6.34 6 5.68 6 5 C5.38125 4.9175 4.7625 4.835 4.125 4.75 C2 4 2 4 0.75 1.9375 C0.5025 1.298125 0.255 0.65875 0 0 Z " fill="#075BDA" transform="translate(589,566)"/>
<path d="M0 0 C0.66 0.33 1.32 0.66 2 1 C-2.97281557 5.36574458 -7.96836982 9.70214922 -13 14 C-13.66 13.67 -14.32 13.34 -15 13 C-12.33206835 8.10879197 -10.03645358 6.11513116 -4.90234375 3.95703125 C-2.83259646 2.91578261 -1.54545854 1.70915196 0 0 Z " fill="#069AF5" transform="translate(495,466)"/>
<path d="M0 0 C-3.61328125 4.6875 -3.61328125 4.6875 -5 6 C-5.99 6 -6.98 6 -8 6 C-7.67 5.01 -7.34 4.02 -7 3 C-11.29 2.67 -15.58 2.34 -20 2 C-20 1.67 -20 1.34 -20 1 C-17.60429729 0.8312461 -15.20846637 0.66493164 -12.8125 0.5 C-12.13896484 0.45230469 -11.46542969 0.40460938 -10.77148438 0.35546875 C-7.17363248 0.10976179 -3.60627694 -0.05601984 0 0 Z " fill="#04ADFD" transform="translate(525,442)"/>
<path d="M0 0 C0.66 0.33 1.32 0.66 2 1 C-1.52060163 5.55680708 -4.46053728 8.90731408 -10 11 C-10.99 11 -11.98 11 -13 11 C-8.73958774 7.23645964 -4.48151089 3.50118038 0 0 Z " fill="#05ADF8" transform="translate(496,507)"/>
<path d="M0 0 C0.66 0.33 1.32 0.66 2 1 C-2.93335002 5.41808902 -7.87997323 9.79895239 -13 14 C-13.66 13.67 -14.32 13.34 -15 13 C-10.375 7.125 -10.375 7.125 -7 6 C-6.67 5.34 -6.34 4.68 -6 4 C-4.35178756 2.96986723 -2.68496298 1.96885372 -1 1 C-0.67 0.67 -0.34 0.34 0 0 Z " fill="#069BF4" transform="translate(472,485)"/>
<path d="M0 0 C0.33 0.66 0.66 1.32 1 2 C0.09176973 4.43557572 -0.86828071 6.76195517 -1.9375 9.125 C-2.22818359 9.78371094 -2.51886719 10.44242188 -2.81835938 11.12109375 C-3.53860198 12.75049505 -4.26841143 14.37566132 -5 16 C-5.33 16 -5.66 16 -6 16 C-6 14.35 -6 12.7 -6 11 C-5.34 11 -4.68 11 -4 11 C-4.0825 9.9275 -4.165 8.855 -4.25 7.75 C-4 4 -4 4 -2 1.5625 C-1.34 1.046875 -0.68 0.53125 0 0 Z " fill="#08A2F2" transform="translate(375,584)"/>
<path d="M0 0 C0.99 0.33 1.98 0.66 3 1 C-2.445 5.455 -2.445 5.455 -8 10 C-8.66 9.67 -9.32 9.34 -10 9 C-7.29691888 5.19566361 -5.37939056 3.53870479 -1 2 C-0.67 1.34 -0.34 0.68 0 0 Z " fill="#0592F4" transform="translate(612,368)"/>
<path d="M0 0 C1.32 0.33 2.64 0.66 4 1 C1.03 3.97 -1.94 6.94 -5 10 C-5 5.63755776 -3.03368793 3.03368793 0 0 Z " fill="#03B0FB" transform="translate(692,302)"/>
<path d="M0 0 C0.66 0.33 1.32 0.66 2 1 C-1.96 4.3 -5.92 7.6 -10 11 C-10.33 10.01 -10.66 9.02 -11 8 C-10.195625 7.54625 -9.39125 7.0925 -8.5625 6.625 C-5.91143428 5.25274335 -5.91143428 5.25274335 -5 3 C-2.5625 1.3125 -2.5625 1.3125 0 0 Z " fill="#0587F1" transform="translate(673,380)"/>
<path d="M0 0 C3.875 1.75 3.875 1.75 5 4 C-7.66970387 4.18451025 -7.66970387 4.18451025 -13 3 C-13 2.67 -13 2.34 -13 2 C-6.565 1.505 -6.565 1.505 0 1 C0 0.67 0 0.34 0 0 Z " fill="#1148B8" transform="translate(653,613)"/>
<path d="M0 0 C2.96404505 2.80804268 5.44499019 5.18315774 7 9 C2.95579349 7.22054913 -0.46078487 4.60470327 -4 2 C-2.68 1.34 -1.36 0.68 0 0 Z " fill="#058BF1" transform="translate(471,549)"/>
<path d="M0 0 C0.66 0.66 1.32 1.32 2 2 C0.35 5.3 -1.3 8.6 -3 12 C-3.33 12 -3.66 12 -4 12 C-4.125 6.25 -4.125 6.25 -3 4 C-2.34 4 -1.68 4 -1 4 C-0.67 2.68 -0.34 1.36 0 0 Z " fill="#06D4FD" transform="translate(326,522)"/>
<path d="M0 0 C4.59306496 1.4859916 7.43569245 3.85014682 11 7 C9.02 7.99 9.02 7.99 7 9 C6.731875 8.360625 6.46375 7.72125 6.1875 7.0625 C5.11332248 4.66868314 5.11332248 4.66868314 2 4 C0.8125 1.9375 0.8125 1.9375 0 0 Z " fill="#0B4CC5" transform="translate(642,605)"/>
<path d="M0 0 C0.66 0.33 1.32 0.66 2 1 C1.01 1.33 0.02 1.66 -1 2 C-1 2.66 -1 3.32 -1 4 C-0.01 3.67 0.98 3.34 2 3 C3.98 5.97 3.98 5.97 6 9 C3.33333333 7.66666667 0.66666667 6.33333333 -2 5 C-2 3.68 -2 2.36 -2 1 C-1.34 0.67 -0.68 0.34 0 0 Z " fill="#09A6F6" transform="translate(457,538)"/>
<path d="M0 0 C0.33 0.66 0.66 1.32 1 2 C-0.49739583 3.23697917 -1.99479167 4.47395833 -3.4921875 5.7109375 C-4.71051161 6.75250992 -5.86660097 7.86660097 -7 9 C-7.99 8.67 -8.98 8.34 -10 8 C-6.7 5.36 -3.4 2.72 0 0 Z " fill="#0690F4" transform="translate(591,421)"/>
<path d="M0 0 C1.21386936 3.64160808 0.6674695 4.33165469 -0.9375 7.6875 C-1.31777344 8.49574219 -1.69804687 9.30398438 -2.08984375 10.13671875 C-2.39019531 10.75160156 -2.69054687 11.36648438 -3 12 C-4.31223496 8.06329512 -3.24296256 5.87511856 -2 2 C-1.34 2 -0.68 2 0 2 C0 1.34 0 0.68 0 0 Z " fill="#07A5F4" transform="translate(402,520)"/>
<path d="M0 0 C2.31 0 4.62 0 7 0 C7.33 0.66 7.66 1.32 8 2 C6.329375 2.2165625 6.329375 2.2165625 4.625 2.4375 C1.17857953 2.78372035 1.17857953 2.78372035 -1 4 C-0.67 2.68 -0.34 1.36 0 0 Z " fill="#03E1FF" transform="translate(361,441)"/>
<path d="M0 0 C2.3125 0.1875 2.3125 0.1875 5 1 C6.8125 3.5625 6.8125 3.5625 8 6 C4.63408134 4.55746343 2.48952921 2.66735273 0 0 Z " fill="#0762D9" transform="translate(530,597)"/>
<path d="M0 0 C5.66153846 1.47692308 5.66153846 1.47692308 7.375 4.125 C7.684375 5.053125 7.684375 5.053125 8 6 C4.08597051 4.73058503 2.20927127 3.48832306 0 0 Z " fill="#0877E4" transform="translate(490,567)"/>
<path d="M0 0 C0.66 0.99 1.32 1.98 2 3 C1.67 3.33 1.34 3.66 1 4 C0.76712992 5.68183948 0.58735834 7.3712416 0.4375 9.0625 C0.35371094 9.98160156 0.26992188 10.90070313 0.18359375 11.84765625 C0.12300781 12.55792969 0.06242188 13.26820313 0 14 C-0.33 14 -0.66 14 -1 14 C-1.02685938 11.85423363 -1.04633088 9.70837355 -1.0625 7.5625 C-1.07410156 6.36753906 -1.08570313 5.17257812 -1.09765625 3.94140625 C-1 1 -1 1 0 0 Z " fill="#01BCFE" transform="translate(683,317)"/>
<path d="M0 0 C1.15941038 3.47823115 0.70820884 5.45895578 0 9 C-0.99 9.33 -1.98 9.66 -3 10 C-2.39009109 6.44219804 -1.4216319 3.3171411 0 0 Z " fill="#09BCF6" transform="translate(304,571)"/>
<path d="" fill="#50596C" transform="translate(0,0)"/>
<path d="" fill="#536072" transform="translate(0,0)"/>
<path d="" fill="#556479" transform="translate(0,0)"/>
<path d="" fill="#58667B" transform="translate(0,0)"/>
<path d="" fill="#56667B" transform="translate(0,0)"/>
<path d="" fill="#58677C" transform="translate(0,0)"/>
<path d="" fill="#58697C" transform="translate(0,0)"/>
<path d="" fill="#59687D" transform="translate(0,0)"/>
<path d="" fill="#576779" transform="translate(0,0)"/>
<path d="" fill="#58657A" transform="translate(0,0)"/>
<path d="" fill="#505B6C" transform="translate(0,0)"/>
<path d="" fill="#546075" transform="translate(0,0)"/>
<path d="" fill="#57657A" transform="translate(0,0)"/>
<path d="" fill="#586678" transform="translate(0,0)"/>
<path d="" fill="#4D5966" transform="translate(0,0)"/>
<path d="" fill="#57667B" transform="translate(0,0)"/>
<path d="" fill="#58687B" transform="translate(0,0)"/>
<path d="" fill="#57657A" transform="translate(0,0)"/>
<path d="" fill="#58667B" transform="translate(0,0)"/>
<path d="" fill="#56657A" transform="translate(0,0)"/>
<path d="" fill="#55647A" transform="translate(0,0)"/>
<path d="" fill="#57687D" transform="translate(0,0)"/>
<path d="" fill="#58697E" transform="translate(0,0)"/>
<path d="" fill="#58697E" transform="translate(0,0)"/>
<path d="" fill="#4F5966" transform="translate(0,0)"/>
<path d="" fill="#57677B" transform="translate(0,0)"/>
<path d="" fill="#4D5663" transform="translate(0,0)"/>
<path d="" fill="#515A69" transform="translate(0,0)"/>
<path d="" fill="#535E6F" transform="translate(0,0)"/>
<path d="" fill="#566679" transform="translate(0,0)"/>
<path d="" fill="#59677B" transform="translate(0,0)"/>
<path d="" fill="#56677D" transform="translate(0,0)"/>
<path d="" fill="#57687A" transform="translate(0,0)"/>
<path d="" fill="#566473" transform="translate(0,0)"/>
<path d="" fill="#545C6B" transform="translate(0,0)"/>
<path d="" fill="#56667B" transform="translate(0,0)"/>
<path d="" fill="#576576" transform="translate(0,0)"/>
<path d="" fill="#515B6A" transform="translate(0,0)"/>
<path d="" fill="#505E6C" transform="translate(0,0)"/>
<path d="" fill="#505D6E" transform="translate(0,0)"/>
<path d="" fill="#546172" transform="translate(0,0)"/>
<path d="" fill="#556475" transform="translate(0,0)"/>
<path d="" fill="#566578" transform="translate(0,0)"/>
<path d="" fill="#586A7E" transform="translate(0,0)"/>
<path d="" fill="#535D6E" transform="translate(0,0)"/>
<path d="" fill="#556275" transform="translate(0,0)"/>
<path d="" fill="#4E5868" transform="translate(0,0)"/>
<path d="" fill="#525C6B" transform="translate(0,0)"/>
<path d="" fill="#505B6D" transform="translate(0,0)"/>
<path d="" fill="#586B7E" transform="translate(0,0)"/>
<path d="" fill="#4D5766" transform="translate(0,0)"/>
<path d="" fill="#4F5B69" transform="translate(0,0)"/>
<path d="" fill="#535F70" transform="translate(0,0)"/>
<path d="" fill="#556477" transform="translate(0,0)"/>
<path d="" fill="#576779" transform="translate(0,0)"/>
<path d="" fill="#58687B" transform="translate(0,0)"/>
<path d="" fill="#586A7D" transform="translate(0,0)"/>
<path d="" fill="#576473" transform="translate(0,0)"/>
<path d="" fill="#515B6D" transform="translate(0,0)"/>
<path d="" fill="#536071" transform="translate(0,0)"/>
<path d="" fill="#515B6A" transform="translate(0,0)"/>
<path d="" fill="#525F6F" transform="translate(0,0)"/>
<path d="" fill="#565E6C" transform="translate(0,0)"/>
<path d="" fill="#4F5867" transform="translate(0,0)"/>
<path d="" fill="#525D6B" transform="translate(0,0)"/>
<path d="" fill="#556070" transform="translate(0,0)"/>
<path d="" fill="#556172" transform="translate(0,0)"/>
<path d="" fill="#57657A" transform="translate(0,0)"/>
<path d="" fill="#59687B" transform="translate(0,0)"/>
<path d="" fill="#586B80" transform="translate(0,0)"/>
<path d="" fill="#596A80" transform="translate(0,0)"/>
<path d="" fill="#5A6472" transform="translate(0,0)"/>
<path d="" fill="#525B69" transform="translate(0,0)"/>
<path d="" fill="#556072" transform="translate(0,0)"/>
<path d="" fill="#556274" transform="translate(0,0)"/>
<path d="" fill="#5A6E82" transform="translate(0,0)"/>
<path d="" fill="#556172" transform="translate(0,0)"/>
<path d="" fill="#5A6C80" transform="translate(0,0)"/>
<path d="" fill="#5A6F83" transform="translate(0,0)"/>
<path d="" fill="#586B81" transform="translate(0,0)"/>
<path d="" fill="#546071" transform="translate(0,0)"/>
<path d="" fill="#525969" transform="translate(0,0)"/>
<path d="" fill="#58697E" transform="translate(0,0)"/>
<path d="" fill="#596B80" transform="translate(0,0)"/>
<path d="" fill="#545D6A" transform="translate(0,0)"/>
<path d="" fill="#515B68" transform="translate(0,0)"/>
<path d="" fill="#525D6B" transform="translate(0,0)"/>
<path d="" fill="#545C6D" transform="translate(0,0)"/>
<path d="" fill="#566172" transform="translate(0,0)"/>
<path d="" fill="#566371" transform="translate(0,0)"/>
<path d="" fill="#586474" transform="translate(0,0)"/>
<path d="" fill="#5A6579" transform="translate(0,0)"/>
<path d="" fill="#58677B" transform="translate(0,0)"/>
<path d="" fill="#57677B" transform="translate(0,0)"/>
<path d="" fill="#5A697D" transform="translate(0,0)"/>
<path d="" fill="#596A7C" transform="translate(0,0)"/>
<path d="" fill="#5A6F85" transform="translate(0,0)"/>
<path d="" fill="#5B7084" transform="translate(0,0)"/>
<path d="" fill="#596B80" transform="translate(0,0)"/>
<path d="" fill="#5B6E81" transform="translate(0,0)"/>
<path d="" fill="#535C6B" transform="translate(0,0)"/>
<path d="" fill="#545D6C" transform="translate(0,0)"/>
<path d="" fill="#555F6E" transform="translate(0,0)"/>
<path d="" fill="#55606F" transform="translate(0,0)"/>
<path d="" fill="#586273" transform="translate(0,0)"/>
<path d="" fill="#586273" transform="translate(0,0)"/>
<path d="" fill="#576475" transform="translate(0,0)"/>
<path d="" fill="#596577" transform="translate(0,0)"/>
<path d="" fill="#5A667A" transform="translate(0,0)"/>
<path d="" fill="#59697B" transform="translate(0,0)"/>
<path d="" fill="#586D84" transform="translate(0,0)"/>
<path d="" fill="#5C6F87" transform="translate(0,0)"/>
<path d="" fill="#5A7285" transform="translate(0,0)"/>
<path d="" fill="#5A7186" transform="translate(0,0)"/>
<path d="" fill="#5C7186" transform="translate(0,0)"/>
<path d="" fill="#5B6D7C" transform="translate(0,0)"/>
<path d="" fill="#5B6979" transform="translate(0,0)"/>
<path d="" fill="#5A6A78" transform="translate(0,0)"/>
<path d="" fill="#57606D" transform="translate(0,0)"/>
<path d="" fill="#586476" transform="translate(0,0)"/>
<path d="" fill="#5A6F84" transform="translate(0,0)"/>
<path d="" fill="#586373" transform="translate(0,0)"/>
<path d="" fill="#586678" transform="translate(0,0)"/>
<path d="" fill="#5A6C80" transform="translate(0,0)"/>
<path d="" fill="#5A6E85" transform="translate(0,0)"/>
<path d="" fill="#5C7184" transform="translate(0,0)"/>
<path d="" fill="#5A6D83" transform="translate(0,0)"/>
<path d="" fill="#596B80" transform="translate(0,0)"/>
<path d="" fill="#5D7388" transform="translate(0,0)"/>
<path d="" fill="#5A6B7F" transform="translate(0,0)"/>
<path d="" fill="#5E6B78" transform="translate(0,0)"/>
<path d="" fill="#5B6C7E" transform="translate(0,0)"/>
<path d="" fill="#5B728A" transform="translate(0,0)"/>
<path d="" fill="#5C778D" transform="translate(0,0)"/>
<path d="" fill="#5A6777" transform="translate(0,0)"/>
<path d="" fill="#5F7588" transform="translate(0,0)"/>
<path d="" fill="#586171" transform="translate(0,0)"/>
<path d="" fill="#596272" transform="translate(0,0)"/>
<path d="" fill="#596373" transform="translate(0,0)"/>
<path d="" fill="#5D6C7B" transform="translate(0,0)"/>
<path d="" fill="#5B6E82" transform="translate(0,0)"/>
<path d="" fill="#5A738C" transform="translate(0,0)"/>
<path d="" fill="#607485" transform="translate(0,0)"/>
<path d="" fill="#627082" transform="translate(0,0)"/>
<path d="" fill="#5F6875" transform="translate(0,0)"/>
<path d="" fill="#5F6876" transform="translate(0,0)"/>
<path d="" fill="#5B738B" transform="translate(0,0)"/>
<path d="" fill="#5B6D83" transform="translate(0,0)"/>
<path d="" fill="#5B6473" transform="translate(0,0)"/>
<path d="" fill="#5E6979" transform="translate(0,0)"/>
<path d="" fill="#5E7890" transform="translate(0,0)"/>
<path d="" fill="#5E7990" transform="translate(0,0)"/>
<path d="" fill="#596E87" transform="translate(0,0)"/>
<path d="" fill="#5C6F86" transform="translate(0,0)"/>
<path d="" fill="#5A7087" transform="translate(0,0)"/>
<path d="" fill="#5A6E88" transform="translate(0,0)"/>
<path d="" fill="#5A6F87" transform="translate(0,0)"/>
<path d="" fill="#567492" transform="translate(0,0)"/>
<path d="" fill="#597089" transform="translate(0,0)"/>
<path d="" fill="#607387" transform="translate(0,0)"/>
<path d="" fill="#5E7088" transform="translate(0,0)"/>
<path d="" fill="#53708D" transform="translate(0,0)"/>
<path d="" fill="#68717F" transform="translate(0,0)"/>
<path d="" fill="#687480" transform="translate(0,0)"/>
<path d="" fill="#626A78" transform="translate(0,0)"/>
<path d="" fill="#4D7296" transform="translate(0,0)"/>
<path d="" fill="#6B8396" transform="translate(0,0)"/>
<path d="" fill="#687180" transform="translate(0,0)"/>
<path d="" fill="#697382" transform="translate(0,0)"/>
<path d="" fill="#5B718E" transform="translate(0,0)"/>
<path d="" fill="#6A7586" transform="translate(0,0)"/>
<path d="" fill="#6C7688" transform="translate(0,0)"/>
<path d="" fill="#69778B" transform="translate(0,0)"/>
<path d="" fill="#6C7687" transform="translate(0,0)"/>
<path d="" fill="#1766D2" transform="translate(0,0)"/>
<path d="" fill="#1156D1" transform="translate(0,0)"/>
<path d="" fill="#6B7788" transform="translate(0,0)"/>
<path d="" fill="#69788A" transform="translate(0,0)"/>
<path d="" fill="#1183EA" transform="translate(0,0)"/>
<path d="" fill="#0A68E2" transform="translate(0,0)"/>
<path d="" fill="#10A1EF" transform="translate(0,0)"/>
<path d="" fill="#0A6AE4" transform="translate(0,0)"/>
<path d="" fill="#17ACFA" transform="translate(0,0)"/>
<path d="" fill="#69768A" transform="translate(0,0)"/>
<path d="" fill="#5E7694" transform="translate(0,0)"/>
<path d="" fill="#0CABF7" transform="translate(0,0)"/>
<path d="" fill="#14AEF9" transform="translate(0,0)"/>
<path d="" fill="#10CEFD" transform="translate(0,0)"/>
<path d="" fill="#0D73E6" transform="translate(0,0)"/>
<path d="" fill="#09A6F9" transform="translate(0,0)"/>
<path d="" fill="#52779C" transform="translate(0,0)"/>
<path d="" fill="#088AF4" transform="translate(0,0)"/>
<path d="" fill="#12D0FF" transform="translate(0,0)"/>
<path d="" fill="#09A2FA" transform="translate(0,0)"/>
<path d="" fill="#11A0F9" transform="translate(0,0)"/>
<path d="" fill="#5F7895" transform="translate(0,0)"/>
<path d="" fill="#0D91F6" transform="translate(0,0)"/>
<path d="" fill="#617790" transform="translate(0,0)"/>
<path d="" fill="#61768F" transform="translate(0,0)"/>
<path d="" fill="#098DFA" transform="translate(0,0)"/>
<path d="" fill="#0C9EFA" transform="translate(0,0)"/>
<path d="" fill="#0799FA" transform="translate(0,0)"/>
<path d="" fill="#0F8EF3" transform="translate(0,0)"/>
<path d="" fill="#15D0FF" transform="translate(0,0)"/>
<path d="" fill="#079DFB" transform="translate(0,0)"/>
<path d="" fill="#16D1FC" transform="translate(0,0)"/>
<path d="" fill="#18D0FD" transform="translate(0,0)"/>
<path d="" fill="#0E94F4" transform="translate(0,0)"/>
<path d="" fill="#5C7993" transform="translate(0,0)"/>
<path d="" fill="#5082AB" transform="translate(0,0)"/>
<path d="" fill="#09A4FF" transform="translate(0,0)"/>
<path d="" fill="#597B98" transform="translate(0,0)"/>
<path d="" fill="#5D7A95" transform="translate(0,0)"/>
<path d="" fill="#5C7B94" transform="translate(0,0)"/>
<path d="" fill="#0C9DF3" transform="translate(0,0)"/>
<path d="" fill="#547FA1" transform="translate(0,0)"/>
<path d="" fill="#577794" transform="translate(0,0)"/>
<path d="" fill="#567896" transform="translate(0,0)"/>
<path d="" fill="#576E86" transform="translate(0,0)"/>
<path d="" fill="#508BB0" transform="translate(0,0)"/>
<path d="" fill="#5189AB" transform="translate(0,0)"/>
<path d="" fill="#548BAD" transform="translate(0,0)"/>
<path d="" fill="#547089" transform="translate(0,0)"/>
<path d="" fill="#577591" transform="translate(0,0)"/>
<path d="" fill="#688FA6" transform="translate(0,0)"/>
<path d="" fill="#57748D" transform="translate(0,0)"/>
<path d="" fill="#587790" transform="translate(0,0)"/>
<path d="" fill="#546B80" transform="translate(0,0)"/>
<path d="" fill="#5A768E" transform="translate(0,0)"/>
<path d="" fill="#5C829C" transform="translate(0,0)"/>
<path d="" fill="#51647A" transform="translate(0,0)"/>
<path d="" fill="#52667C" transform="translate(0,0)"/>
<path d="" fill="#576D84" transform="translate(0,0)"/>
<path d="" fill="#586F86" transform="translate(0,0)"/>
<path d="" fill="#5C768F" transform="translate(0,0)"/>
<path d="" fill="#516378" transform="translate(0,0)"/>
<path d="" fill="#5B798F" transform="translate(0,0)"/>
<path d="" fill="#5E7E97" transform="translate(0,0)"/>
<path d="" fill="#5E8099" transform="translate(0,0)"/>
<path d="" fill="#677383" transform="translate(0,0)"/>
<path d="" fill="#6A869A" transform="translate(0,0)"/>
<path d="" fill="#698196" transform="translate(0,0)"/>
<path d="" fill="#55667D" transform="translate(0,0)"/>
<path d="" fill="#566A80" transform="translate(0,0)"/>
<path d="" fill="#586B80" transform="translate(0,0)"/>
<path d="" fill="#4F6278" transform="translate(0,0)"/>
<path d="" fill="#576F84" transform="translate(0,0)"/>
<path d="" fill="#5D7891" transform="translate(0,0)"/>
<path d="" fill="#64829B" transform="translate(0,0)"/>
<path d="" fill="#626B79" transform="translate(0,0)"/>
<path d="" fill="#67849B" transform="translate(0,0)"/>
<path d="" fill="#506277" transform="translate(0,0)"/>
<path d="" fill="#616A78" transform="translate(0,0)"/>
<path d="" fill="#506277" transform="translate(0,0)"/>
<path d="" fill="#516478" transform="translate(0,0)"/>
<path d="" fill="#586B81" transform="translate(0,0)"/>
<path d="" fill="#5C7187" transform="translate(0,0)"/>
<path d="" fill="#5D748A" transform="translate(0,0)"/>
<path d="" fill="#5D788E" transform="translate(0,0)"/>
<path d="" fill="#607A92" transform="translate(0,0)"/>
<path d="" fill="#607C92" transform="translate(0,0)"/>
<path d="" fill="#6B8195" transform="translate(0,0)"/>
<path d="" fill="#5F6878" transform="translate(0,0)"/>
<path d="" fill="#516176" transform="translate(0,0)"/>
<path d="" fill="#55677B" transform="translate(0,0)"/>
<path d="" fill="#5F7A92" transform="translate(0,0)"/>
<path d="" fill="#688399" transform="translate(0,0)"/>
</svg>
